<svg width="139" height="96" viewBox="0 0 139 96" fill="none" xmlns="http://www.w3.org/2000/svg">
<path d="M2.619 8.11L2.889 7.39H5.679L5.949 8.11H2.619ZM4.266 5.122L3.204 7.624L3.132 7.786L2.196 10H1.341L4.266 3.385L7.191 10H6.336L5.418 7.84L5.346 7.66L4.266 5.122ZM8.49494 6.85C8.49494 7.336 8.60294 7.765 8.81894 8.137C9.04094 8.509 9.32894 8.8 9.68294 9.01C10.0369 9.22 10.4209 9.325 10.8349 9.325C11.1349 9.325 11.4079 9.286 11.6539 9.208C11.9059 9.13 12.1339 9.022 12.3379 8.884C12.5419 8.74 12.7159 8.575 12.8599 8.389V9.397C12.5959 9.631 12.3079 9.805 11.9959 9.919C11.6839 10.033 11.2969 10.09 10.8349 10.09C10.3969 10.09 9.98594 10.012 9.60194 9.856C9.22394 9.694 8.89094 9.469 8.60294 9.181C8.31494 8.887 8.08994 8.542 7.92794 8.146C7.76594 7.75 7.68494 7.318 7.68494 6.85C7.68494 6.382 7.76594 5.95 7.92794 5.554C8.08994 5.158 8.31494 4.816 8.60294 4.528C8.89094 4.234 9.22394 4.009 9.60194 3.853C9.98594 3.691 10.3969 3.61 10.8349 3.61C11.2969 3.61 11.6839 3.667 11.9959 3.781C12.3079 3.895 12.5959 4.069 12.8599 4.303V5.311C12.7159 5.125 12.5419 4.963 12.3379 4.825C12.1339 4.681 11.9059 4.57 11.6539 4.492C11.4079 4.414 11.1349 4.375 10.8349 4.375C10.4209 4.375 10.0369 4.48 9.68294 4.69C9.32894 4.9 9.04094 5.191 8.81894 5.563C8.60294 5.929 8.49494 6.358 8.49494 6.85ZM15.0161 6.85C15.0161 7.336 15.1241 7.765 15.3401 8.137C15.5621 8.509 15.8501 8.8 16.2041 9.01C16.5581 9.22 16.9421 9.325 17.3561 9.325C17.6561 9.325 17.9291 9.286 18.1751 9.208C18.4271 9.13 18.6551 9.022 18.8591 8.884C19.0631 8.74 19.2371 8.575 19.3811 8.389V9.397C19.1171 9.631 18.8291 9.805 18.5171 9.919C18.2051 10.033 17.8181 10.09 17.3561 10.09C16.9181 10.09 16.5071 10.012 16.1231 9.856C15.7451 9.694 15.4121 9.469 15.1241 9.181C14.8361 8.887 14.6111 8.542 14.4491 8.146C14.2871 7.75 14.2061 7.318 14.2061 6.85C14.2061 6.382 14.2871 5.95 14.4491 5.554C14.6111 5.158 14.8361 4.816 15.1241 4.528C15.4121 4.234 15.7451 4.009 16.1231 3.853C16.5071 3.691 16.9181 3.61 17.3561 3.61C17.8181 3.61 18.2051 3.667 18.5171 3.781C18.8291 3.895 19.1171 4.069 19.3811 4.303V5.311C19.2371 5.125 19.0631 4.963 18.8591 4.825C18.6551 4.681 18.4271 4.57 18.1751 4.492C17.9291 4.414 17.6561 4.375 17.3561 4.375C16.9421 4.375 16.5581 4.48 16.2041 4.69C15.8501 4.9 15.5621 5.191 15.3401 5.563C15.1241 5.929 15.0161 6.358 15.0161 6.85ZM21.5372 6.85C21.5372 7.324 21.6392 7.747 21.8432 8.119C22.0532 8.491 22.3382 8.785 22.6982 9.001C23.0582 9.217 23.4662 9.325 23.9222 9.325C24.3842 9.325 24.7922 9.217 25.1462 9.001C25.5062 8.785 25.7882 8.491 25.9922 8.119C26.2022 7.747 26.3072 7.324 26.3072 6.85C26.3072 6.376 26.2022 5.953 25.9922 5.581C25.7882 5.209 25.5062 4.915 25.1462 4.699C24.7922 4.483 24.3842 4.375 23.9222 4.375C23.4662 4.375 23.0582 4.483 22.6982 4.699C22.3382 4.915 22.0532 5.209 21.8432 5.581C21.6392 5.953 21.5372 6.376 21.5372 6.85ZM20.7272 6.85C20.7272 6.388 20.8052 5.962 20.9612 5.572C21.1232 5.176 21.3482 4.834 21.6362 4.546C21.9242 4.252 22.2632 4.024 22.6532 3.862C23.0432 3.694 23.4662 3.61 23.9222 3.61C24.3842 3.61 24.8072 3.694 25.1912 3.862C25.5812 4.024 25.9202 4.252 26.2082 4.546C26.4962 4.834 26.7182 5.176 26.8742 5.572C27.0362 5.962 27.1172 6.388 27.1172 6.85C27.1172 7.306 27.0362 7.732 26.8742 8.128C26.7182 8.524 26.4962 8.869 26.2082 9.163C25.9202 9.451 25.5812 9.679 25.1912 9.847C24.8072 10.009 24.3842 10.09 23.9222 10.09C23.4662 10.09 23.0432 10.009 22.6532 9.847C22.2632 9.679 21.9242 9.451 21.6362 9.163C21.3482 8.869 21.1232 8.524 20.9612 8.128C20.8052 7.732 20.7272 7.306 20.7272 6.85ZM29.3226 9.28H32.7876V3.7H33.5526V9.28H34.3176V10.99H33.6426V10H28.5576V3.7H29.3226V9.28ZM41.2455 4.555L35.7555 10.315L35.8004 9.145L41.2905 3.385L41.2455 4.555ZM36.5205 3.7V9.325L35.7555 10.315V3.7H36.5205ZM41.2905 3.385V10H40.5255V4.375L41.2905 3.385ZM43.697 8.11L43.967 7.39H46.757L47.027 8.11H43.697ZM45.344 5.122L44.282 7.624L44.21 7.786L43.274 10H42.419L45.344 3.385L48.269 10H47.414L46.496 7.84L46.424 7.66L45.344 5.122ZM50.1604 9.28H53.6254V3.7H54.3904V9.28H55.1554V10.99H54.4804V10H49.3954V3.7H50.1604V9.28ZM62.0833 4.555L56.5933 10.315L56.6383 9.145L62.1283 3.385L62.0833 4.555ZM57.3583 3.7V9.325L56.5933 10.315V3.7H57.3583ZM62.1283 3.385V10H61.3633V4.375L62.1283 3.385ZM66.4068 6.895L64.2468 10H63.3018L65.5518 6.895H66.4068ZM67.5318 3.7V10H66.7668V3.7H67.5318ZM67.1088 4.375H65.8218C65.5518 4.375 65.3118 4.423 65.1018 4.519C64.8978 4.615 64.7358 4.753 64.6158 4.933C64.5018 5.113 64.4448 5.332 64.4448 5.59C64.4448 5.848 64.5018 6.067 64.6158 6.247C64.7358 6.427 64.8978 6.565 65.1018 6.661C65.3118 6.757 65.5518 6.805 65.8218 6.805H67.1088V7.48H65.8218C65.4198 7.48 65.0568 7.405 64.7328 7.255C64.4088 7.099 64.1508 6.88 63.9588 6.598C63.7728 6.31 63.6798 5.974 63.6798 5.59C63.6798 5.2 63.7728 4.864 63.9588 4.582C64.1508 4.3 64.4088 4.084 64.7328 3.934C65.0568 3.778 65.4198 3.7 65.8218 3.7H67.1088V4.375ZM76.6162 4.42H73.1512V10H72.3862V3.7H77.3812V10H76.6162V4.42ZM79.1797 3.7H79.9447V10H79.1797V3.7ZM79.6027 4.42V3.7H80.8897C81.2977 3.7 81.6607 3.778 81.9787 3.934C82.3027 4.084 82.5577 4.3 82.7437 4.582C82.9357 4.864 83.0317 5.2 83.0317 5.59C83.0317 5.974 82.9357 6.31 82.7437 6.598C82.5577 6.88 82.3027 7.099 81.9787 7.255C81.6607 7.405 81.2977 7.48 80.8897 7.48H79.6027V6.76H80.8897C81.2977 6.76 81.6277 6.661 81.8797 6.463C82.1377 6.265 82.2667 5.974 82.2667 5.59C82.2667 5.2 82.1377 4.909 81.8797 4.717C81.6277 4.519 81.2977 4.42 80.8897 4.42H79.6027ZM84.9204 6.85C84.9204 7.324 85.0224 7.747 85.2264 8.119C85.4364 8.491 85.7214 8.785 86.0814 9.001C86.4414 9.217 86.8494 9.325 87.3054 9.325C87.7674 9.325 88.1754 9.217 88.5294 9.001C88.8894 8.785 89.1714 8.491 89.3754 8.119C89.5854 7.747 89.6904 7.324 89.6904 6.85C89.6904 6.376 89.5854 5.953 89.3754 5.581C89.1714 5.209 88.8894 4.915 88.5294 4.699C88.1754 4.483 87.7674 4.375 87.3054 4.375C86.8494 4.375 86.4414 4.483 86.0814 4.699C85.7214 4.915 85.4364 5.209 85.2264 5.581C85.0224 5.953 84.9204 6.376 84.9204 6.85ZM84.1104 6.85C84.1104 6.388 84.1884 5.962 84.3444 5.572C84.5064 5.176 84.7314 4.834 85.0194 4.546C85.3074 4.252 85.6464 4.024 86.0364 3.862C86.4264 3.694 86.8494 3.61 87.3054 3.61C87.7674 3.61 88.1904 3.694 88.5744 3.862C88.9644 4.024 89.3034 4.252 89.5914 4.546C89.8794 4.834 90.1014 5.176 90.2574 5.572C90.4194 5.962 90.5004 6.388 90.5004 6.85C90.5004 7.306 90.4194 7.732 90.2574 8.128C90.1014 8.524 89.8794 8.869 89.5914 9.163C89.3034 9.451 88.9644 9.679 88.5744 9.847C88.1904 10.009 87.7674 10.09 87.3054 10.09C86.8494 10.09 86.4264 10.009 86.0364 9.847C85.6464 9.679 85.3074 9.451 85.0194 9.163C84.7314 8.869 84.5064 8.524 84.3444 8.128C84.1884 7.732 84.1104 7.306 84.1104 6.85ZM94.5033 5.122L92.7483 9.73H91.9383L94.5033 3.385L97.0683 9.73H96.2583L94.5033 5.122ZM97.0233 10H91.9833V10.99H91.3083V9.28H97.6983V10.99H97.0233V10ZM99.6056 6.94V6.22H101.586V6.94H99.6056ZM99.1826 3.7H99.9476V10H99.1826V3.7ZM101.793 6.85C101.793 7.324 101.895 7.747 102.099 8.119C102.309 8.491 102.594 8.785 102.954 9.001C103.314 9.217 103.722 9.325 104.178 9.325C104.64 9.325 105.048 9.217 105.402 9.001C105.762 8.785 106.044 8.491 106.248 8.119C106.458 7.747 106.563 7.324 106.563 6.85C106.563 6.376 106.458 5.953 106.248 5.581C106.044 5.209 105.762 4.915 105.402 4.699C105.048 4.483 104.64 4.375 104.178 4.375C103.722 4.375 103.314 4.483 102.954 4.699C102.594 4.915 102.309 5.209 102.099 5.581C101.895 5.953 101.793 6.376 101.793 6.85ZM100.983 6.85C100.983 6.388 101.061 5.962 101.217 5.572C101.379 5.176 101.604 4.834 101.892 4.546C102.18 4.252 102.519 4.024 102.909 3.862C103.299 3.694 103.722 3.61 104.178 3.61C104.64 3.61 105.063 3.694 105.447 3.862C105.837 4.024 106.176 4.252 106.464 4.546C106.752 4.834 106.974 5.176 107.13 5.572C107.292 5.962 107.373 6.388 107.373 6.85C107.373 7.306 107.292 7.732 107.13 8.128C106.974 8.524 106.752 8.869 106.464 9.163C106.176 9.451 105.837 9.679 105.447 9.847C105.063 10.009 104.64 10.09 104.178 10.09C103.722 10.09 103.299 10.009 102.909 9.847C102.519 9.679 102.18 9.451 101.892 9.163C101.604 8.869 101.379 8.524 101.217 8.128C101.061 7.732 100.983 7.306 100.983 6.85ZM109.265 6.85C109.265 7.336 109.373 7.765 109.589 8.137C109.811 8.509 110.099 8.8 110.453 9.01C110.807 9.22 111.191 9.325 111.605 9.325C111.905 9.325 112.178 9.286 112.424 9.208C112.676 9.13 112.904 9.022 113.108 8.884C113.312 8.74 113.486 8.575 113.63 8.389V9.397C113.366 9.631 113.078 9.805 112.766 9.919C112.454 10.033 112.067 10.09 111.605 10.09C111.167 10.09 110.756 10.012 110.372 9.856C109.994 9.694 109.661 9.469 109.373 9.181C109.085 8.887 108.86 8.542 108.698 8.146C108.536 7.75 108.455 7.318 108.455 6.85C108.455 6.382 108.536 5.95 108.698 5.554C108.86 5.158 109.085 4.816 109.373 4.528C109.661 4.234 109.994 4.009 110.372 3.853C110.756 3.691 111.167 3.61 111.605 3.61C112.067 3.61 112.454 3.667 112.766 3.781C113.078 3.895 113.366 4.069 113.63 4.303V5.311C113.486 5.125 113.312 4.963 113.108 4.825C112.904 4.681 112.676 4.57 112.424 4.492C112.178 4.414 111.905 4.375 111.605 4.375C111.191 4.375 110.807 4.48 110.453 4.69C110.099 4.9 109.811 5.191 109.589 5.563C109.373 5.929 109.265 6.358 109.265 6.85ZM115.759 10V9.28H118.936V10H115.759ZM115.759 4.42V3.7H118.936V4.42H115.759ZM115.759 6.94V6.22H118.756V6.94H115.759ZM115.336 3.7H116.101V10H115.336V3.7ZM120.644 3.7H121.409V10H120.644V3.7ZM121.067 4.42V3.7H122.354C122.762 3.7 123.125 3.778 123.443 3.934C123.767 4.084 124.022 4.3 124.208 4.582C124.4 4.864 124.496 5.2 124.496 5.59C124.496 5.974 124.4 6.31 124.208 6.598C124.022 6.88 123.767 7.099 123.443 7.255C123.125 7.405 122.762 7.48 122.354 7.48H121.067V6.76H122.354C122.762 6.76 123.092 6.661 123.344 6.463C123.602 6.265 123.731 5.974 123.731 5.59C123.731 5.2 123.602 4.909 123.344 4.717C123.092 4.519 122.762 4.42 122.354 4.42H121.067ZM126.385 6.85C126.385 7.324 126.487 7.747 126.691 8.119C126.901 8.491 127.186 8.785 127.546 9.001C127.906 9.217 128.314 9.325 128.77 9.325C129.232 9.325 129.64 9.217 129.994 9.001C130.354 8.785 130.636 8.491 130.84 8.119C131.05 7.747 131.155 7.324 131.155 6.85C131.155 6.376 131.05 5.953 130.84 5.581C130.636 5.209 130.354 4.915 129.994 4.699C129.64 4.483 129.232 4.375 128.77 4.375C128.314 4.375 127.906 4.483 127.546 4.699C127.186 4.915 126.901 5.209 126.691 5.581C126.487 5.953 126.385 6.376 126.385 6.85ZM125.575 6.85C125.575 6.388 125.653 5.962 125.809 5.572C125.971 5.176 126.196 4.834 126.484 4.546C126.772 4.252 127.111 4.024 127.501 3.862C127.891 3.694 128.314 3.61 128.77 3.61C129.232 3.61 129.655 3.694 130.039 3.862C130.429 4.024 130.768 4.252 131.056 4.546C131.344 4.834 131.566 5.176 131.722 5.572C131.884 5.962 131.965 6.388 131.965 6.85C131.965 7.306 131.884 7.732 131.722 8.128C131.566 8.524 131.344 8.869 131.056 9.163C130.768 9.451 130.429 9.679 130.039 9.847C129.655 10.009 129.232 10.09 128.77 10.09C128.314 10.09 127.891 10.009 127.501 9.847C127.111 9.679 126.772 9.451 126.484 9.163C126.196 8.869 125.971 8.524 125.809 8.128C125.653 7.732 125.575 7.306 125.575 6.85ZM134.008 6.67V6.247H135.025C135.235 6.247 135.424 6.211 135.592 6.139C135.76 6.067 135.892 5.962 135.988 5.824C136.084 5.686 136.132 5.518 136.132 5.32C136.132 5.02 136.027 4.789 135.817 4.627C135.607 4.459 135.343 4.375 135.025 4.375H134.17V9.325H135.115C135.385 9.325 135.622 9.277 135.826 9.181C136.036 9.085 136.198 8.947 136.312 8.767C136.432 8.587 136.492 8.368 136.492 8.11C136.492 7.918 136.459 7.747 136.393 7.597C136.327 7.447 136.231 7.321 136.105 7.219C135.985 7.117 135.841 7.042 135.673 6.994C135.505 6.94 135.319 6.913 135.115 6.913H134.008V6.49H135.115C135.421 6.49 135.703 6.523 135.961 6.589C136.219 6.655 136.444 6.757 136.636 6.895C136.834 7.027 136.987 7.198 137.095 7.408C137.203 7.618 137.257 7.867 137.257 8.155C137.257 8.569 137.161 8.914 136.969 9.19C136.783 9.46 136.528 9.664 136.204 9.802C135.886 9.934 135.523 10 135.115 10H133.405V3.7H135.025C135.403 3.7 135.73 3.757 136.006 3.871C136.288 3.985 136.507 4.159 136.663 4.393C136.819 4.621 136.897 4.915 136.897 5.275C136.897 5.569 136.819 5.821 136.663 6.031C136.507 6.241 136.288 6.4 136.006 6.508C135.73 6.616 135.403 6.67 135.025 6.67H134.008Z" fill="#AD9A68"/>
<path d="M1.19551 85H2.04551V92H1.19551V85ZM4.79551 85H5.84551L2.81551 88.28L5.99551 92H4.94551L1.78551 88.3L4.79551 85ZM14.4498 85.95L8.3498 92.35L8.3998 91.05L14.4998 84.65L14.4498 85.95ZM9.1998 85V91.25L8.3498 92.35V85H9.1998ZM14.4998 84.65V92H13.6498V85.75L14.4998 84.65ZM18.0737 88.6V87.8H22.8737V88.6H18.0737ZM22.3037 85H23.1537V92H22.3037V85ZM17.6037 85H18.4537V92H17.6037V85ZM26.7521 88.5C26.7521 89.0267 26.8655 89.4967 27.0921 89.91C27.3255 90.3233 27.6421 90.65 28.0421 90.89C28.4421 91.13 28.8955 91.25 29.4021 91.25C29.9155 91.25 30.3688 91.13 30.7621 90.89C31.1621 90.65 31.4755 90.3233 31.7021 89.91C31.9355 89.4967 32.0521 89.0267 32.0521 88.5C32.0521 87.9733 31.9355 87.5033 31.7021 87.09C31.4755 86.6767 31.1621 86.35 30.7621 86.11C30.3688 85.87 29.9155 85.75 29.4021 85.75C28.8955 85.75 28.4421 85.87 28.0421 86.11C27.6421 86.35 27.3255 86.6767 27.0921 87.09C26.8655 87.5033 26.7521 87.9733 26.7521 88.5ZM25.8521 88.5C25.8521 87.9867 25.9388 87.5133 26.1121 87.08C26.2921 86.64 26.5421 86.26 26.8621 85.94C27.1821 85.6133 27.5588 85.36 27.9921 85.18C28.4255 84.9933 28.8955 84.9 29.4021 84.9C29.9155 84.9 30.3855 84.9933 30.8121 85.18C31.2455 85.36 31.6221 85.6133 31.9421 85.94C32.2621 86.26 32.5088 86.64 32.6821 87.08C32.8621 87.5133 32.9521 87.9867 32.9521 88.5C32.9521 89.0067 32.8621 89.48 32.6821 89.92C32.5088 90.36 32.2621 90.7433 31.9421 91.07C31.6221 91.39 31.2455 91.6433 30.8121 91.83C30.3855 92.01 29.9155 92.1 29.4021 92.1C28.8955 92.1 28.4255 92.01 27.9921 91.83C27.5588 91.6433 27.1821 91.39 26.8621 91.07C26.5421 90.7433 26.2921 90.36 26.1121 89.92C25.9388 89.48 25.8521 89.0067 25.8521 88.5ZM46.2506 85.95L40.1506 92.35L40.2006 91.05L46.3006 84.65L46.2506 85.95ZM41.0006 85V91.25L40.1506 92.35V85H41.0006ZM46.3006 84.65V92H45.4506V85.75L46.3006 84.65ZM53.2025 85.8V85H57.6525V85.8H55.8525V92H55.0025V85.8H53.2025ZM60.521 92V91.2H64.051V92H60.521ZM60.521 85.8V85H64.051V85.8H60.521ZM60.521 88.6V87.8H63.851V88.6H60.521ZM60.051 85H60.901V92H60.051V85ZM72.029 85V92H71.179V85.8H68.079V89.6C68.079 90.0267 68.0124 90.4233 67.879 90.79C67.7524 91.1567 67.559 91.45 67.299 91.67C67.0457 91.89 66.729 92 66.349 92V91.27C66.5024 91.27 66.6357 91.2233 66.749 91.13C66.8624 91.0367 66.959 90.9067 67.039 90.74C67.119 90.5667 67.179 90.3667 67.219 90.14C67.259 89.9133 67.279 89.6667 67.279 89.4V85H72.029ZM75.6011 92V91.2H79.1311V92H75.6011ZM75.6011 85.8V85H79.1311V85.8H75.6011ZM75.6011 88.6V87.8H78.9311V88.6H75.6011ZM75.1311 85H75.9811V92H75.1311V85ZM82.7991 88.3V87.83H83.9291C84.1624 87.83 84.3724 87.79 84.5591 87.71C84.7458 87.63 84.8924 87.5133 84.9991 87.36C85.1058 87.2067 85.1591 87.02 85.1591 86.8C85.1591 86.4667 85.0424 86.21 84.8091 86.03C84.5758 85.8433 84.2824 85.75 83.9291 85.75H82.9791V91.25H84.0291C84.3291 91.25 84.5924 91.1967 84.8191 91.09C85.0524 90.9833 85.2324 90.83 85.3591 90.63C85.4924 90.43 85.5591 90.1867 85.5591 89.9C85.5591 89.6867 85.5224 89.4967 85.4491 89.33C85.3758 89.1633 85.2691 89.0233 85.1291 88.91C84.9958 88.7967 84.8358 88.7133 84.6491 88.66C84.4624 88.6 84.2558 88.57 84.0291 88.57H82.7991V88.1H84.0291C84.3691 88.1 84.6824 88.1367 84.9691 88.21C85.2558 88.2833 85.5058 88.3967 85.7191 88.55C85.9391 88.6967 86.1091 88.8867 86.2291 89.12C86.3491 89.3533 86.4091 89.63 86.4091 89.95C86.4091 90.41 86.3024 90.7933 86.0891 91.1C85.8824 91.4 85.5991 91.6267 85.2391 91.78C84.8858 91.9267 84.4824 92 84.0291 92H82.1291V85H83.9291C84.3491 85 84.7124 85.0633 85.0191 85.19C85.3324 85.3167 85.5758 85.51 85.7491 85.77C85.9224 86.0233 86.0091 86.35 86.0091 86.75C86.0091 87.0767 85.9224 87.3567 85.7491 87.59C85.5758 87.8233 85.3324 88 85.0191 88.12C84.7124 88.24 84.3491 88.3 83.9291 88.3H82.7991ZM95.3053 85.95L89.2053 92.35L89.2553 91.05L95.3553 84.65L95.3053 85.95ZM90.0553 85V91.25L89.2053 92.35V85H90.0553ZM95.3553 84.65V92H94.5053V85.75L95.3553 84.65ZM101.609 86.58L99.6592 91.7H98.7592L101.609 84.65L104.459 91.7H103.559L101.609 86.58ZM104.409 92H98.8092V93.1H98.0592V91.2H105.159V93.1H104.409V92ZM108.378 92V91.2H111.908V92H108.378ZM108.378 85.8V85H111.908V85.8H108.378ZM108.378 88.6V87.8H111.708V88.6H108.378ZM107.908 85H108.758V92H107.908V85ZM115.376 88.6V87.8H120.176V88.6H115.376ZM119.606 85H120.456V92H119.606V85ZM114.906 85H115.756V92H114.906V85ZM129.655 85.95L123.555 92.35L123.605 91.05L129.705 84.65L129.655 85.95ZM124.405 85V91.25L123.555 92.35V85H124.405ZM129.705 84.65V92H128.855V85.75L129.705 84.65ZM135.559 88.55L133.159 92H132.109L134.609 88.55H135.559ZM136.809 85V92H135.959V85H136.809ZM136.339 85.75H134.909C134.609 85.75 134.342 85.8033 134.109 85.91C133.882 86.0167 133.702 86.17 133.569 86.37C133.442 86.57 133.379 86.8133 133.379 87.1C133.379 87.3867 133.442 87.63 133.569 87.83C133.702 88.03 133.882 88.1833 134.109 88.29C134.342 88.3967 134.609 88.45 134.909 88.45H136.339V89.2H134.909C134.462 89.2 134.059 89.1167 133.699 88.95C133.339 88.7767 133.052 88.5333 132.839 88.22C132.632 87.9 132.529 87.5267 132.529 87.1C132.529 86.6667 132.632 86.2933 132.839 85.98C133.052 85.6667 133.339 85.4267 133.699 85.26C134.059 85.0867 134.462 85 134.909 85H136.339V85.75Z" fill="#AD9A68"/>
<path fill-rule="evenodd" clip-rule="evenodd" d="M120.784 69.8482H123.549V71.9362H120.784V69.8482ZM120.784 65.5675H123.549V67.6555H120.784V65.5675ZM120.784 61.2868H123.549V63.3747H120.784V61.2868ZM120.784 57.0061H123.549V59.094H120.784V57.0061ZM120.784 52.7254H123.549V54.8133H120.784V52.7254ZM120.784 48.4447H123.549V50.5326H120.784V48.4447ZM120.784 44.164H123.549V46.2519H120.784V44.164ZM120.784 39.8833H123.549V41.9712H120.784V39.8833ZM120.784 35.6025H123.549V37.6905H120.784V35.6025ZM120.784 31.3218H123.549V33.4098H120.784V31.3218ZM108.732 21.1379H139V30.1856H128.458V74.066H119.134V30.1814H108.732V21.1337V21.1379ZM32.2679 21.1379H9.67486L0 74.0618H9.00675L9.89897 65.9239L22.5761 62.5572L23.1977 64.1755L12.1274 66.8505L23.1977 66.3348V74.0618H32.2679V21.1379ZM24.1576 51.9875C21.7135 54.4821 14.9901 54.5702 11.7976 51.9875L17.7556 32.2065H19.3878L21.0834 39.2376C21.6458 39.2627 22.149 39.4095 22.5423 39.6569C22.9947 39.9378 23.3076 40.3444 23.426 40.856C23.5656 41.4555 23.4598 41.967 23.2188 42.4072C22.9862 42.8307 22.6226 43.1787 22.2251 43.468L22.0475 43.2248L24.1576 51.9875ZM21.223 39.812L21.9799 42.9439C22.2801 42.7133 22.5507 42.445 22.7241 42.1347C22.9059 41.8077 22.982 41.4304 22.8763 40.9817C22.7917 40.6212 22.5719 40.3319 22.2463 40.1306C21.9714 39.9587 21.6247 39.8497 21.223 39.812ZM97.3533 74.0618H89.3191C89.3402 73.8941 89.3529 73.7264 89.3529 73.5503C89.3529 71.7433 88.1647 70.2088 86.5156 69.6763C88.1605 69.1439 89.3529 67.6135 89.3529 65.8023C89.3529 63.555 87.5135 61.7312 85.247 61.7312C82.9805 61.7312 81.2426 63.4544 81.1453 65.6178H80.5618V62.314H79.4624V61.618H79.8218L80.0798 61.0646L81.4836 58.0668H75.8682L77.272 61.0646L77.53 61.618H77.8894V62.314H76.7731L76.2699 63.1777V64.3978L75.4157 64.7248V74.0618H67.927V21.1379H73.8215L76.8323 50.0337H80.5703L90.8836 21.1379H99.4718L90.021 45.5475L97.3575 74.066L97.3533 74.0618ZM99.4675 45.5434H105.447V59.4504L110.631 45.5434H116.61V74.0618H110.631V61.2868L105.447 74.0618H99.4675V45.5434ZM0 79.2314H139V81.3297H0V79.2314ZM0 14H139V16.0983H0V14ZM37.1772 21.1379H62.9035V74.066H53.0637C52.8396 73.5671 52.6705 73.3701 52.8438 72.9466C53.0172 72.5231 52.8438 71.4456 52.8438 70.6239C52.8438 69.8021 53.1272 69.5044 53.3851 69.0223C53.643 68.5401 53.7868 67.6764 53.8714 67.1691C53.956 66.6576 54.1293 66.1503 54.3281 65.5549C54.5268 64.9596 54.5268 63.3747 54.586 61.5593C54.6452 59.7481 54.7594 56.2346 54.7594 56.2346C54.7594 56.2346 55.4148 56.1214 55.5839 55.9495C55.9138 55.6141 55.7869 55.3961 56.0152 54.9978C56.2436 54.5995 56.159 54.3354 56.0152 54.0209C55.8715 53.7107 55.271 52.717 55.271 52.717C55.271 52.717 55.4994 52.5451 55.5797 52.3774C55.66 52.2055 55.6685 51.5011 55.7277 50.7045C55.7869 49.9121 55.6135 47.3336 55.5797 46.3693C55.5459 45.405 55.2118 44.4449 55.0427 43.9627C54.8693 43.4806 54.7847 41.7238 54.7847 40.9314C54.7847 40.139 54.5268 39.0615 54.2985 38.6087C54.0701 38.1559 52.4717 37.0239 52.4717 37.0239C52.4717 37.0239 52.8988 37.0532 53.2413 37.1077C53.5838 37.1664 54.0447 37.0532 54.1885 36.7136C54.3323 36.374 54.4253 36.1015 54.4253 36.1015L54.7509 35.8876L54.8355 35.5103L55.4317 35.4726L55.4106 33.9045C55.4106 33.9045 55.6685 33.7326 55.7235 33.4811C55.7827 33.2253 55.808 32.8018 55.808 32.8018L56.3239 32.6886C56.8398 32.5754 57.1612 32.4664 57.1612 32.4664C57.1612 32.4664 55.9264 31.7243 55.4402 31.4141C54.9539 31.1038 53.4105 30.2234 52.6705 30.194C51.9263 30.1647 51.2878 30.5127 50.8311 31.3596C50.3744 32.2107 50.4716 32.7977 50.4716 33.3092C50.4716 33.8207 50.3194 34.6969 50.3194 34.6969C50.3194 34.6969 50.0995 34.7263 49.8162 34.982C49.5287 35.2378 49.3595 35.5774 49.3595 35.5774C49.3595 35.5774 47.9599 36.2566 47.3299 36.7388C46.6998 37.2209 45.3002 38.638 45.131 39.3466C44.9577 40.0552 44.6447 41.6148 44.6743 42.8013C44.7039 43.9921 44.3318 44.4742 44.1331 45.296C43.9344 46.1177 43.9893 46.8263 43.9893 47.363C43.9893 47.8996 43.7906 48.6669 44.2177 49.1742C44.6447 49.6857 45.0169 49.8241 45.3594 50.3062C45.7019 50.7884 45.7019 51.325 45.7019 51.325C45.7019 51.325 45.9302 51.6646 45.9894 52.3439C46.0486 53.0231 46.1374 53.2285 46.0951 54.0209C46.0528 54.8133 45.4059 55.4297 45.4059 55.4297C45.4059 55.4297 45.9048 55.4045 46.2347 55.6602C46.5603 55.916 46.6237 56.1131 46.6237 56.1131V61.836C46.6237 63.5341 46.7083 64.7248 46.7379 66.2006C46.7675 67.6722 46.5645 68.8084 46.3362 70.5065C46.1205 72.1206 46.315 73.8858 46.3362 74.0618H37.1856V21.1379H37.1772Z" fill="#AD9A68"/>
</svg>