<svg width="416" height="183" viewBox="0 0 416 183" fill="none" xmlns="http://www.w3.org/2000/svg">
<path d="M168.605 0C205.431 0.000553672 205.434 42.1581 205.434 76.0361C205.434 109.914 205.431 152.074 168.605 152.074C131.78 152.073 131.778 108.145 131.778 76.0361C131.778 43.9278 131.78 0.000760843 168.605 0ZM374.003 0.251953C374.058 0.354896 374.039 63.9715 374.021 108.414C375.738 103.287 378.952 99.1642 383.302 95.3008C392.789 87.3559 405.711 86.4221 416 79.9648C415.182 90.1389 414.159 99.8826 409.704 108.848C402.946 122.454 391.348 126.847 377.748 130.503L377.271 130.109L377.581 128.423C382.185 116.732 390.476 108.937 397.447 99.0811C390.739 104.765 383.226 110.873 378.192 118.571C374.73 123.867 374.009 130.353 374.007 136.68C374.003 145.246 374.003 150.544 374.003 150.619H352.727V19.9102C342.389 22.8179 333.333 30.9712 328.634 44.6221C323.678 58.9698 323.764 79.8306 323.764 88.6162V89.4375C323.593 115.161 323.763 150.318 323.764 150.493L301.889 150.367C301.889 150.221 301.887 115.108 302.058 89.3105V88.4893C302.058 79.0714 302.656 57.5794 308.295 41.2725C318.975 10.4291 348.626 0.12736 373.917 0.126953L374.003 0.251953ZM284.64 17.8867H249.521V63.9014H281.649V80.2725H249.521L249.438 133.87H281.992V150.431H227.82L227.906 1.39258H284.64V17.8867ZM81.3633 0.126953C89.9926 0.127117 97.5982 2.65305 103.408 7.51953C112.978 15.4834 116.736 28.6318 114.771 46.582C111.011 80.1436 86.4045 98.7883 63.6768 105.552V150.367H41.9717V98.2715C41.9717 91.9293 41.2182 85.4805 38.1084 79.9531C36.1742 76.5154 33.8343 73.2949 31.1328 70.2715C29.5408 68.5409 26.11 64.0732 23.9385 63.498C24.4221 65.1671 28.0703 68.7944 29.1846 70.7402C32.0184 75.6882 33.825 81.354 35.8525 86.6602C1.38371 75.1594 13.9461 53.8574 0 44.0332C7.47626 44.1394 15.2652 44.6453 22.2549 47.3232C30.5601 50.4881 37.1653 56.7628 40.5908 64.7402C41.0748 65.8634 41.541 67.1241 41.9717 68.4756C42.1601 44.2615 44.633 19.0333 60.3438 6.95117L60.2578 6.88867C66.0679 2.46442 73.3318 0.127029 81.3633 0.126953ZM168.605 15.7998C153.141 15.8016 153.142 59.5388 153.142 76.0361C153.142 92.5328 153.141 136.27 168.605 136.271C184.07 136.27 184.071 94.0498 184.071 76.0361C184.071 58.0221 184.07 15.8011 168.605 15.7998ZM81.4463 16.8135C79.226 16.8138 77.5162 17.3805 75.7227 18.707C63.3336 28.1883 63.5913 61.4367 63.6768 75.5947V88.1074C77.6036 81.4075 90.675 69.5872 93.2383 45.2539V45.3193C95.118 27.4323 89.9071 20.8559 87.5146 18.8965C85.806 17.4433 83.9237 16.8135 81.4463 16.8135Z" fill="url(#paint0_linear_263_453)"/>
<defs>
<linearGradient id="paint0_linear_263_453" x1="198.564" y1="-4.82905" x2="176.167" y2="190.835" gradientUnits="userSpaceOnUse">
<stop stop-color="#DEBA91"/>
<stop offset="0.43313" stop-color="#B09373"/>
<stop offset="1" stop-color="#78654E"/>
</linearGradient>
</defs>
</svg>
