<svg width="299" height="435" viewBox="0 0 299 435" fill="none" xmlns="http://www.w3.org/2000/svg">
<path d="M202.506 163.643C209.177 163.349 225.631 163.947 231.417 166.92C233.231 167.852 234.322 169.53 234.916 171.44C235.794 174.261 235.848 177.628 235.976 180.561C236.669 196.535 233.536 215.689 226.003 229.871C221.849 237.692 216.407 244.405 209.469 249.891C208.265 250.842 206.77 252.191 205.306 252.64C205.393 252.159 217.895 240.822 218.831 232.707C219.09 230.463 218.551 228.301 217.109 226.541C213.419 222.04 205.602 220.769 200.074 220.272C177.242 218.218 145.713 226.336 127.938 241.221C114.569 252.415 109.217 269.723 107.719 286.591C109.032 283.313 110.541 280.194 112.379 277.177C129.51 249.051 150.286 240.385 181.01 232.896C176.129 235.545 170.974 237.672 166.081 240.301C150.623 248.611 135.654 260.329 126.709 275.712C116.758 292.821 113.408 315.566 118.48 334.75C118.513 332.863 117.96 330.918 117.713 329.039C117.295 325.809 117.036 322.558 116.936 319.303C116.785 312.638 117.398 305.89 119.255 299.47C124.418 281.621 138.757 265.297 154.893 256.432C160.331 253.445 166.132 251.42 171.895 249.188C180.888 245.708 188.998 241.292 195.975 234.537C197.957 232.62 199.752 230.495 201.659 228.498C200.816 230.887 199.525 233.176 198.233 235.35C189.047 250.805 172.627 255.971 158.488 265.317C151.957 269.636 146.149 274.841 141.839 281.411C132.332 295.905 129.229 315.661 132.782 332.531C134.252 339.718 137.526 346.411 142.296 351.98C172.79 380.06 208.286 355.871 253.511 364.255C262.735 365.965 273.539 370.558 281.415 375.72C290.562 381.719 295.29 390.279 297.533 401.068C296.747 400.496 294.988 396.358 294.062 395.027C291.765 391.737 288.571 389.066 285.208 386.922C275.331 380.626 263.531 376.762 252.046 375.72C221.23 372.957 210.673 379.628 179.676 380.296C172.343 380.426 149.72 378.474 144.824 373.72C146.108 375.755 148.714 376.919 150.776 378.027C155.22 380.421 159.514 382.63 164.32 384.25C171.308 386.604 178.688 388.035 185.244 391.505C190.848 394.47 196.296 398.932 198.176 405.222C199.003 407.993 199.394 411.992 197.966 414.638C198.078 410.959 197.881 407.696 195.881 404.493C188.382 392.484 168.598 392.613 156.324 389.67C147.031 387.44 138.997 383.931 132.099 377.211C130.5 375.653 128.773 373.916 127.6 372.009C126.321 395.014 104.385 399.271 102.806 414.661C102.335 419.246 103.615 423.315 106.563 426.843C109.359 430.185 114.299 434.047 118.794 434.436C118.591 434.529 118.629 434.52 118.337 434.582C115.422 435.203 107.603 431.147 105.174 429.439C100.122 425.889 96.3739 420.263 95.375 414.127C93.3898 401.932 101.335 394.745 107.626 385.908C114.236 376.622 115.277 366.162 113.427 355.118C112.91 358.845 112.24 362.335 110.659 365.772C106.294 375.258 96.0756 382.785 86.5518 386.465C82.2992 388.11 77.7525 389.125 73.2539 389.809C65.1556 391.04 56.7501 390.349 49.0566 393.674C46.0412 394.977 44.5331 397.491 42.0664 399.373C42.0209 399.408 41.9737 399.443 41.9277 399.475C50.5993 386.61 61.373 389.133 73.5918 383.139C81.3399 379.337 91.5131 371.446 94.4053 362.989C92.8736 365.657 90.0722 367.615 87.5117 369.242C73.003 378.461 58.7949 377.268 42.9922 381.212C38.0939 382.432 33.1813 384.47 28.8271 387.021C25.2062 389.098 22.0101 391.842 19.4082 395.104C18.4859 396.25 17.774 397.576 16.7285 398.612C16.6828 398.657 16.6347 398.699 16.5879 398.744C17.1545 397.479 17.8108 396.245 18.4727 395.027C27.2163 378.926 45.2771 375.782 61.207 371.037C75.5602 366.761 87.4423 358.288 94.6328 344.903C101.758 331.642 103.36 310.558 100.698 295.877C99.4626 289.062 97.131 282.519 95.752 275.757C94.4253 269.251 94.3291 262.261 92.4092 255.921C89.904 247.645 84.2668 239.061 77.2568 233.926C75.1632 232.39 72.8447 231.214 70.5645 229.986C73.2547 230.475 75.9382 230.964 78.5605 231.748C85.4139 233.8 91.5554 236.889 95.0918 243.431C97.854 227.18 105.774 212.344 116.929 200.312C138.477 177.07 171.266 164.833 202.506 163.643ZM208.795 276.266C224.942 276.267 224.943 294.761 224.943 309.623C224.943 324.485 224.943 342.981 208.795 342.981C192.647 342.981 192.646 323.709 192.646 309.623C192.646 295.537 192.647 276.266 208.795 276.266ZM298.861 276.378C298.898 276.566 298.861 342.164 298.861 342.343H289.531V285.001C284.998 286.276 281.027 289.854 278.966 295.843C276.793 302.137 276.831 311.288 276.831 315.142V315.502C276.756 326.81 276.831 342.275 276.831 342.288L267.238 342.232C267.238 342.232 267.239 326.788 267.313 315.447V315.087C267.313 310.955 267.575 301.527 270.048 294.373C274.731 280.842 287.733 276.322 298.823 276.322L298.861 276.378ZM259.675 284.113H244.276V304.3H258.364V311.482H244.276L244.24 334.995H258.515V342.26H234.76L234.798 276.878H259.675V284.113ZM170.539 276.322C174.323 276.322 177.657 277.43 180.205 279.565C184.401 283.059 186.05 288.827 185.188 296.702C183.54 311.425 172.749 319.605 162.783 322.572V342.232H153.266V309.429C153.191 297.922 153.753 285.139 161.321 279.316L161.284 279.289C163.832 277.348 167.017 276.322 170.539 276.322ZM208.795 283.198C202.014 283.198 202.014 302.385 202.014 309.623C202.014 316.86 202.013 336.049 208.795 336.049C215.576 336.048 215.576 317.525 215.576 309.623C215.576 301.72 215.576 283.199 208.795 283.198ZM170.575 283.642C169.602 283.643 168.852 283.891 168.065 284.473C162.633 288.633 162.746 303.218 162.783 309.429V314.919C168.89 311.979 174.622 306.794 175.746 296.119V296.148C176.57 288.301 174.285 285.416 173.236 284.556C172.487 283.919 171.662 283.642 170.575 283.642ZM187.138 74.2469C192.161 73.6775 203.915 73.8191 208.608 75.7215C215.359 78.4582 219.794 90.5653 222.465 97.0857C224.246 101.435 225.797 105.894 227.366 110.324C230.373 118.814 236.214 133.698 232.441 142.447C231.85 143.831 231.009 145.095 229.961 146.177C227.75 148.444 221.532 152.787 218.591 153.949C219.015 153.249 220.001 152.69 220.653 152.187C223.625 149.898 227.465 147.144 228.78 143.5C229.269 142.146 229.249 140.718 228.596 139.416C227.8 137.829 225.913 136.965 224.307 136.444C219.12 134.763 213.041 134.534 207.63 134.535C183.983 134.541 159.577 141.39 138.595 152.11C110.007 166.716 79.0691 194.363 69.0293 225.568C66.4337 233.636 65.6304 243.288 69.6084 251.047C69.9838 251.631 70.375 252.204 70.7812 252.768C74.8059 258.253 83.0396 261.691 89.6025 262.652C88.7724 262.799 87.9365 262.919 87.0977 263.007C70.1359 264.784 53.6235 260.702 38.4961 253.179C34.0186 250.952 29.4979 248.52 25.6045 245.349C23.359 243.52 21.9918 241.585 21.7402 238.657C21.3535 234.164 22.5377 229.073 23.2227 224.63C27.681 195.703 41.6069 168.898 60.5391 146.804C66.6396 139.656 73.2521 132.96 80.3232 126.771C87.607 120.448 95.4169 114.924 103.363 109.479C118.352 99.2088 134.451 89.1343 151.475 82.5447C162.706 78.1971 175.107 75.177 187.138 74.2469ZM140.818 125.248L140.744 125.267C105.817 136.56 74.3379 159.934 57.3887 193.109C52.482 202.714 49.1219 212.55 46.8389 223.068C46.7501 223.477 46.631 223.937 46.5039 224.444C46.3783 224.945 46.2466 225.484 46.1387 226.026C45.9267 227.09 45.7874 228.255 46.0205 229.234C46.0876 229.515 46.3421 229.712 46.6309 229.705C46.9199 229.698 47.1655 229.489 47.2188 229.205L47.2256 229.168C52.6265 204.6 68.1782 179.539 85.915 161.814C94.2272 153.508 103.818 146.076 113.732 139.743C119.177 136.265 124.921 133.096 130.868 130.619C132.548 129.919 134.361 129.316 136.194 128.662C138.014 128.013 139.843 127.317 141.493 126.445C141.723 126.324 141.851 126.071 141.813 125.814C141.775 125.557 141.579 125.352 141.324 125.303L141.049 125.249C140.973 125.234 140.894 125.234 140.818 125.248ZM99.6123 195.932C99.7935 195.979 99.8626 196.09 99.9961 196.217C99.7411 197.331 99.3608 198.552 99.3281 199.692C99.2051 203.998 100.917 207.972 100.398 212.435C99.7993 217.595 97.3432 221.17 93.3789 224.341C92.9577 219.468 92.9791 215.039 93.7695 210.204C92.65 212.613 91.9554 215.217 91.1943 217.756C90.1485 221.465 89.7967 224.521 90.4424 228.33C89.1137 226.762 87.9999 225.024 87.1309 223.162C84.947 218.524 84.727 213.197 86.5205 208.391C88.8575 202.311 93.8495 198.523 99.6123 195.932ZM176.479 184.711C157.407 188.688 143.261 192.98 128.163 206.341C127.062 207.315 125.638 208.481 124.363 209.635C123.064 210.81 121.802 212.075 120.896 213.383L120.046 214.61L121.513 214.334C121.686 214.301 121.894 214.257 122.082 214.115C122.166 214.051 122.23 213.981 122.267 213.939C122.303 213.898 122.328 213.869 122.362 213.831C133.885 204.082 147.79 196.707 161.794 191.067C165.759 189.511 169.797 188.145 173.894 186.976L173.895 186.977C174.06 186.932 174.337 186.871 174.691 186.796C175.036 186.722 175.441 186.636 175.835 186.542C176.226 186.448 176.625 186.343 176.957 186.227C177.122 186.17 177.285 186.105 177.427 186.032C177.557 185.965 177.725 185.864 177.852 185.716L178.707 184.717L177.392 184.705L176.609 184.698L176.543 184.697L176.479 184.711ZM137.108 0.0701089C140.922 -0.305326 144.303 0.862495 147.585 2.72538C151.471 4.93115 154.928 7.92149 158.314 10.8142C170.288 21.0403 182.195 33.1199 190.098 46.8465C191.224 48.8027 192.435 50.7644 193.012 52.9685C193.649 55.406 193.286 57.5069 192.01 59.6629C189.315 64.2148 181.963 69.1707 176.864 70.5135L176.777 70.3885C180.859 68.3068 184.858 65.7166 188.007 62.3504C189.456 60.8013 191.036 58.4832 190.873 56.2508C190.787 55.0778 190.205 54.0978 189.303 53.3611C185.335 50.1227 174.657 51.5545 169.88 52.1844C126.363 57.9219 77.983 93.728 51.6973 127.969C42.9361 138.642 32.9685 154.961 28.4922 167.966C26.9857 172.342 25.992 177.573 27.9053 181.969C28.7786 183.975 30.0261 185.858 30.9941 187.832C27.8957 184.017 25.1493 180.566 24.3877 175.546C23.4468 169.343 23.9464 162.728 24.3496 156.482C26.747 119.358 43.1889 84.0136 65.0479 54.406C79.4973 34.8348 97.4129 18.4236 118.982 7.05448C124.473 4.16038 130.917 1.00957 137.108 0.0701089ZM254.758 157.604C262.161 156.653 269.083 160.001 276.421 159.983C272.748 164.521 269.108 168.796 263.958 171.7C256.143 176.109 248.795 174.775 240.655 172.507L240.536 172.181L241.234 171.48C247.332 167.34 254.074 166.11 260.799 163.524C253.368 164.519 244.845 165.439 238.924 170.554C239.982 168.477 241.079 166.391 242.454 164.501C245.57 160.206 249.615 158.405 254.758 157.604ZM0 123.228C4.33861 124.123 8.81593 125.293 12.5957 127.683C17.089 130.513 20.2597 135.03 21.3975 140.219C22.3503 144.54 22.4792 151.682 20.0557 155.509L19.7236 155.565C19.2221 150.891 17.6833 146.553 15.3018 142.502C14.561 141.282 13.0437 138.208 11.8418 137.62C11.9441 138.68 13.6775 141.272 14.1172 142.568C15.2355 145.865 15.6792 149.481 16.29 152.904C-2.53308 142.143 7.06151 130.699 0 123.228ZM256.902 107.561C257.499 108.982 257.768 110.743 258.135 112.246C259.689 118.609 260.977 125.525 258.869 131.938C256.117 140.307 249.105 144.998 241.652 148.721C245.62 143.838 247.897 136.601 249.916 130.746C250.37 129.211 251.241 127.422 251.226 125.825L250.999 125.907C248.896 132.825 244.633 138.767 241.272 145.06C240.926 142.517 240.502 139.978 240.372 137.411C239.953 128.973 243.117 121.196 248.982 115.179C251.54 112.554 254.437 110.281 256.902 107.561ZM113.506 53.0799C113.387 53.0573 113.264 53.0703 113.152 53.117C85.0276 64.9442 63.4077 82.3002 47.9375 108.866C46.0016 112.19 43.4472 115.81 41.9248 119.465H41.9258C41.8993 119.528 41.8679 119.606 41.8486 119.654C41.7775 119.831 41.7928 120.031 41.8896 120.195C41.9869 120.359 42.1554 120.469 42.3447 120.492L42.5459 120.515C42.7862 120.544 43.021 120.428 43.1445 120.22C56.1123 98.3377 73.7649 79.6007 94.833 65.3582C98.3988 62.9677 101.985 60.5979 105.714 58.5291C106.598 58.0388 108.358 57.2313 110.085 56.4021C110.938 55.9925 111.778 55.58 112.474 55.2078C113.149 54.8463 113.753 54.4906 114.086 54.1941C114.26 54.0392 114.331 53.7985 114.27 53.574C114.207 53.3494 114.023 53.1786 113.794 53.1346L113.506 53.0799ZM229.317 34.1892C229.588 35.1885 226.945 48.6508 226.241 50.6385C223.686 57.8464 218.5 62.6796 211.707 65.826C209.277 66.9515 206.743 67.8235 204.324 68.9822C207.493 63.1021 210.656 57.7235 214.767 52.4275C215.486 51.6717 216.068 50.8535 216.665 50.0008C211.511 54.1959 205.816 59.2552 203.157 65.4646C203.111 61.7636 202.95 57.9739 203.988 54.3787C204.734 51.797 206.056 49.4944 207.689 47.3748C213.417 39.944 221.523 38.4472 229.317 34.1892Z" fill="url(#paint0_linear_261_154)"/>
<defs>
<linearGradient id="paint0_linear_261_154" x1="142.659" y1="-20.2317" x2="100.121" y2="493.342" gradientUnits="userSpaceOnUse">
<stop stop-color="#DEBA91"/>
<stop offset="0.43313" stop-color="#B09373"/>
<stop offset="1" stop-color="#78654E"/>
</linearGradient>
</defs>
</svg>
